<svg width="56" height="64" viewBox="0 0 56 64" fill="none" xmlns="http://www.w3.org/2000/svg">
<path d="M34.8208 33.0914C34.8208 33.0914 34.8208 33.0818 34.8208 33.0723H21.1808L19.8208 37.2413C19.4108 38.5064 19.0708 39.7811 18.8008 41.075H37.2008C36.9308 39.7811 36.5908 38.5064 36.1808 37.2509L34.8208 33.0818V33.0914Z" fill="#F5C71D"/>
<path d="M23 17H33V6.515C33.0002 6.42765 32.9786 6.34171 32.9375 6.26527C32.8964 6.18883 32.8372 6.12442 32.7651 6.07813C32.6931 6.03183 32.6107 6.00518 32.5259 6.00068C32.441 5.99619 32.3563 6.01399 32.28 6.05243L23.28 10.6782C23.1959 10.7205 23.1249 10.7864 23.0754 10.8682C23.0259 10.95 22.9998 11.0444 23 11.1407V17Z" fill="#FFCE00"/>
</svg>
