<svg width="56" height="64" viewBox="0 0 56 64" fill="none" xmlns="http://www.w3.org/2000/svg">
<mask id="mask0_263_51874" style="mask-type:alpha" maskUnits="userSpaceOnUse" x="0" y="0" width="56" height="64">
<rect width="56" height="64" fill="#FF1895"/>
</mask>
<g mask="url(#mask0_263_51874)">
<path d="M25 8.84713V11H31V7.59023C31 7.28126 30.7226 7.04624 30.4178 7.09703L25.8356 7.86073C25.3534 7.9411 25 8.35829 25 8.84713Z" fill="#F8B915"/>
<path d="M15 24.91C15 24.64 15.11 24.39 15.29 24.2C15.68 23.81 15.68 23.18 15.29 22.79C15.11 22.61 15 22.35 15 22.09V21H41V22.09C41 22.36 40.89 22.61 40.71 22.8C40.32 23.19 40.32 23.82 40.71 24.21C40.9 24.4 41 24.65 41 24.92V67.09C41 67.36 40.89 67.61 40.71 67.8C40.32 68.19 40.32 68.82 40.71 69.21C40.9 69.4 41 69.65 41 69.92V71.01H15V69.92C15 69.65 15.11 69.4 15.29 69.21C15.68 68.82 15.68 68.19 15.29 67.8C15.1 67.61 15 67.36 15 67.09V24.91Z" fill="#F8B915"/>
<circle cx="35" cy="8" r="1" fill="#F8B915"/>
<circle cx="39" cy="6" r="1" fill="#F8B915"/>
<circle cx="43" cy="4" r="1" fill="#F8B915"/>
<circle cx="39" cy="10" r="1" fill="#F8B915"/>
<circle cx="43" cy="8" r="1" fill="#F8B915"/>
<circle cx="43" cy="12" r="1" fill="#F8B915"/>
</g>
</svg>
