<svg width="22" height="22" viewBox="0 0 22 22" xmlns="http://www.w3.org/2000/svg">
<path d="M19.4287 19.2896C16.9287 17.7396 14.4987 15.6396 14.3787 12.9396C14.3187 12.2596 14.4087 11.5696 14.3587 10.6296C14.3287 10.1696 14.2087 9.53957 13.8088 9.01957C13.3988 8.49957 12.8587 8.20957 12.4087 8.04957C11.8687 7.82957 11.1687 7.81957 10.6387 7.97957C10.0987 8.12957 9.66875 8.37957 9.28875 8.62957C8.52875 9.14957 7.95875 9.71957 7.38875 10.2596C6.82875 10.7996 6.29875 11.3396 5.76875 11.7596C5.25875 12.1996 4.68875 12.4696 4.45875 12.4396C4.34875 12.4396 4.26875 12.3996 4.10875 12.2896C3.95875 12.1796 3.77875 11.9896 3.66875 11.7896C3.42875 11.4096 3.31875 10.8996 3.34875 10.2996C3.38875 9.09957 3.88875 7.72957 4.51875 6.44957C5.14875 5.15957 5.92875 3.89957 6.77875 2.68957C6.82875 2.61957 6.86875 2.54957 6.91875 2.47957C7.30875 1.82957 7.13875 0.969567 6.50875 0.479567C5.87875 -0.020433 4.94875 0.119567 4.43875 0.789567C4.38875 0.859567 4.33875 0.939567 4.28875 1.00957C3.41875 2.35957 2.62875 3.75957 1.95875 5.26957C1.31875 6.77957 0.72875 8.37957 0.71875 10.2796C0.71875 11.2096 0.92875 12.2796 1.55875 13.1896C1.86875 13.6396 2.22875 14.0196 2.70875 14.3396C3.17875 14.6696 3.85875 14.9096 4.51875 14.8696C5.85875 14.7696 6.62875 14.0796 7.27875 13.5396C7.92875 12.9696 8.45875 12.3796 8.97875 11.8296C9.49875 11.2796 10.0087 10.7496 10.5187 10.3796C10.7687 10.1896 11.0188 10.0496 11.2188 9.98957C11.4288 9.92957 11.5288 9.91957 11.7188 9.96957C11.9987 10.0496 12.1587 10.1596 12.2287 10.2396C12.3087 10.3196 12.3687 10.4796 12.4087 10.7796C12.4787 11.3796 12.4087 12.2396 12.5187 13.0896C12.6887 14.8496 13.6187 16.5096 14.7787 17.6696C15.9487 18.8596 17.2887 19.7696 18.6687 20.5496C19.4687 21.0196 20.2687 21.2596 20.7387 21.2596C20.8487 21.1896 20.9387 21.0896 20.9987 20.9696C21.0587 20.8496 21.0888 20.7096 21.0788 20.5796C20.8088 20.1896 20.1887 19.7096 19.4287 19.2596V19.2896Z" />
</svg>
