<svg width="21" height="22" viewBox="0 0 21 22" xmlns="http://www.w3.org/2000/svg">
<path d="M18.3117 19.5104C17.0117 18.7104 15.7717 17.8004 14.7817 16.7004C13.7817 15.6104 13.1317 14.3004 13.0617 12.8604C13.0017 12.1304 13.1017 11.4104 13.0217 10.4904C12.9817 10.0404 12.7917 9.46039 12.3917 9.05039C11.9817 8.64039 11.5517 8.45039 11.0717 8.30039C10.5417 8.15039 9.9617 8.22039 9.5017 8.39039C9.0317 8.56039 8.6517 8.80039 8.3017 9.06039C7.6117 9.58039 7.0417 10.1504 6.4817 10.7004C5.9217 11.2504 5.3817 11.7904 4.8317 12.2204C4.2817 12.6604 3.6917 12.9304 3.3117 12.8504C2.9417 12.8104 2.4317 12.3404 2.1917 11.8404C1.9417 11.3204 1.8517 10.6904 1.9117 10.0104C2.0317 8.65039 2.5917 7.24039 3.2517 5.91039C3.9217 4.57039 4.7317 3.28039 5.6117 2.05039C5.6617 1.98039 5.7117 1.91039 5.7517 1.84039C6.0217 1.41039 5.9117 0.830391 5.4917 0.500391C5.0717 0.170391 4.4517 0.260391 4.1117 0.690391C4.0617 0.760391 4.0117 0.840391 3.9517 0.91039C3.0517 2.24039 2.2317 3.63039 1.5417 5.10039C0.861704 6.57039 0.261704 8.13039 0.141704 9.90039C0.00170381 11.6104 0.721704 13.9404 3.0617 14.4604C3.6417 14.5404 4.2017 14.3904 4.6417 14.1904C5.0917 13.9804 5.4517 13.7204 5.7817 13.4504C6.4417 12.9004 6.9917 12.3204 7.5317 11.7604C8.0717 11.2004 8.5917 10.6504 9.1517 10.2204C9.7017 9.79039 10.2717 9.53039 10.7017 9.65039C10.9617 9.72039 11.2717 9.86039 11.4117 10.0104C11.5617 10.1604 11.6517 10.3604 11.7017 10.6704C11.7817 11.3104 11.7017 12.1504 11.7917 12.9804C11.9117 14.6904 12.7817 16.3104 13.9217 17.4804C15.0617 18.6704 16.4017 19.5904 17.7717 20.3804C18.5817 20.8504 19.3517 21.1404 19.8017 21.2004C19.8717 21.1504 19.9417 21.0904 19.9817 21.0104C20.0217 20.9304 20.0417 20.8404 20.0317 20.7504C19.7217 20.4204 19.0617 19.9804 18.2917 19.5204L18.3117 19.5104Z" />
</svg>
