<svg width="23" height="23" viewBox="0 0 23 23"  xmlns="http://www.w3.org/2000/svg">
<path  d="M20.7945 19.6394C18.6545 18.2494 16.7345 16.4494 16.4045 14.5894C16.3645 14.3494 16.3345 14.1194 16.3245 13.8494C16.3245 13.7794 16.3245 13.4494 16.3245 13.1894V12.3394C16.3445 11.1894 16.1445 10.2394 15.6245 9.44939C15.0845 8.63939 14.1245 8.08939 13.1545 7.88939C12.1645 7.67939 11.1945 7.88939 10.2445 8.37939C9.68454 8.65939 9.14453 9.06939 8.62453 9.50939C8.36453 9.72939 8.10454 9.96939 7.85454 10.2094L7.35454 10.6794L6.92453 11.0794L6.71454 11.2694L6.61453 11.3594L6.56453 11.3994C6.41453 11.5194 6.39454 11.5094 6.30454 11.5594C6.16454 11.6194 6.01453 11.6594 5.89453 11.5794C5.77453 11.4994 5.71453 11.3594 5.70453 11.2394C5.69453 11.1094 5.72453 11.0194 5.76453 10.9194C5.84453 10.5094 6.04453 9.85939 6.28453 9.27939C6.78453 8.07939 7.51454 6.82939 8.33454 5.62939C8.37454 5.55939 8.41453 5.49939 8.45453 5.43939C9.14453 4.17939 8.78454 2.49939 7.52454 1.50939C6.26454 0.519388 4.36453 0.829388 3.37453 2.25939C3.32453 2.32939 3.27454 2.40939 3.22454 2.48939C2.37454 4.00939 1.59453 5.59939 1.01453 7.40939C0.734529 8.33939 0.494534 9.23939 0.394534 10.4194C0.304534 11.8994 0.514534 13.4494 1.25453 14.6094C1.96453 15.7894 3.05453 16.6994 4.34453 17.0294C5.64453 17.3494 6.97453 16.9994 8.12453 16.2094C8.41453 16.0194 8.69454 15.7994 8.96454 15.5694C9.23454 15.3294 9.50453 15.0894 9.70453 14.8794L9.97454 14.5994L10.1945 14.3594L10.6045 13.9094L10.8045 13.6894C10.8645 13.6194 10.9545 13.5294 10.9445 13.5294L11.0345 13.4094C11.0945 13.3294 11.1645 13.2394 11.2545 13.1494C11.3945 13.0094 11.5745 12.8594 11.7945 12.8294C12.0045 12.8094 12.2445 12.8794 12.3645 13.0594C12.4745 13.2394 12.4745 13.4594 12.5145 13.6894L12.5945 14.2294C12.6445 14.6494 12.7445 15.0894 12.8545 15.5094C13.3545 17.2394 14.4445 18.6594 15.6045 19.6894C16.7645 20.7394 18.0145 21.5394 19.2845 22.2294C20.0845 22.6994 20.9245 22.7994 21.4945 22.5894C21.7145 22.4594 21.9045 22.2594 22.0245 22.0094C22.1445 21.7594 22.1945 21.4994 22.1845 21.2294C22.0345 20.6494 21.5245 20.0594 20.8245 19.6394H20.7945Z" />
</svg>
