<svg width="23" height="22" viewBox="0 0 23 22"  xmlns="http://www.w3.org/2000/svg">
<path d="M20.6726 18.8602C18.2926 17.3302 16.1226 15.3302 16.0226 13.0602C16.0026 12.7702 15.9926 12.4602 16.0026 12.1202L16.0226 11.3502C16.0226 11.0402 16.0226 10.7302 15.9826 10.4302C15.9226 9.83022 15.7526 9.28022 15.4526 8.79022C15.1426 8.31022 14.7026 7.90022 14.1826 7.64022C13.6726 7.37022 13.0926 7.20022 12.5126 7.17022C11.9326 7.15022 11.3426 7.28022 10.7826 7.53022C10.2126 7.77022 9.6926 8.14022 9.1726 8.55022C8.7526 8.89022 8.50261 9.13022 8.19261 9.41022C7.61261 9.95022 7.08261 10.4702 6.58261 10.9002C6.34261 11.1102 6.0726 11.3102 5.9026 11.4202C5.8326 11.4602 5.76261 11.4802 5.69261 11.4902C5.55261 11.5102 5.42261 11.4302 5.36261 11.3202C5.33261 11.2702 5.31261 11.2102 5.30261 11.1602C5.30261 11.1202 5.2526 10.9002 5.2326 10.7402C5.1826 9.95022 5.53261 8.70022 6.07261 7.54022C6.61261 6.35022 7.3326 5.16022 8.1226 4.02022C8.1626 3.95022 8.20261 3.88022 8.24261 3.82022C8.84261 2.76022 8.55261 1.35022 7.50261 0.520216C6.45261 -0.309784 4.88261 -0.0497842 4.05261 1.11022C4.00261 1.18022 3.9526 1.26022 3.9026 1.34022C3.0826 2.73022 2.34261 4.18022 1.74261 5.77022C1.18261 7.37022 0.6226 9.10021 0.9026 11.3202C1.0126 11.9002 1.1226 12.4102 1.4526 13.0502C1.7526 13.6802 2.2026 14.2202 2.7026 14.6802C3.7126 15.5902 5.12261 15.9802 6.41261 15.6002C7.05261 15.4302 7.65261 15.1002 8.19261 14.7002C8.63261 14.3702 8.93261 14.0802 9.24261 13.7802C9.84261 13.1802 10.3526 12.6102 10.8326 12.0902C11.0626 11.8502 11.3426 11.5602 11.4926 11.4102C11.5526 11.3402 11.6326 11.2602 11.7226 11.2002C11.8926 11.0602 12.1426 10.9802 12.3726 11.0702C12.6226 11.1302 12.7526 11.3702 12.7726 11.6202L12.7926 11.8102C12.7926 11.8702 12.8026 11.9102 12.8126 12.1602C12.8326 12.5702 12.8626 13.0202 12.9326 13.4702C13.0726 14.3802 13.3826 15.3002 13.8426 16.1002C14.2926 16.9002 14.8526 17.6002 15.4626 18.1902C16.6826 19.3802 18.0326 20.2702 19.4126 21.0202C20.2126 21.4902 21.0426 21.6402 21.5726 21.5002C21.7626 21.3902 21.9126 21.2202 22.0126 21.0202C22.1126 20.8102 22.1526 20.5902 22.1426 20.3702C21.9526 19.8602 21.4126 19.3002 20.6826 18.8702L20.6726 18.8602Z" />
</svg>
