<svg width="32" height="32" viewBox="0 0 32 32" fill="none" xmlns="http://www.w3.org/2000/svg">
<path d="M22.3675 22.3675C20.7363 23.9988 18.4862 25 16 25C11.0275 25 7 20.9725 7 16L7 13" stroke="#494845" stroke-width="2" stroke-linecap="round"/>
<path d="M10 16C8.34315 16 7 14.6569 7 13" stroke="#494845" stroke-width="2" stroke-linecap="round"/>
<path d="M4 16C5.65685 16 7 14.6569 7 13" stroke="#494845" stroke-width="2" stroke-linecap="round"/>
<path d="M9.6325 9.6325C11.2637 8.00125 13.5138 7 16 7C20.9725 7 25 11.0275 25 16L25 19" stroke="#494845" stroke-width="2" stroke-linecap="round"/>
<path d="M22 16C23.6569 16 25 17.3431 25 19" stroke="#494845" stroke-width="2" stroke-linecap="round"/>
<path d="M28 16C26.3431 16 25 17.3431 25 19" stroke="#494845" stroke-width="2" stroke-linecap="round"/>
</svg>
