<svg width="32" height="32" viewBox="0 0 32 32" fill="none" xmlns="http://www.w3.org/2000/svg">
<path d="M21 8H22C22 7.44772 21.5523 7 21 7V8ZM11 8V7C10.4477 7 10 7.44772 10 8H11ZM24 11H25C25 10.4477 24.5523 10 24 10V11ZM24 21V22C24.5523 22 25 21.5523 25 21H24ZM21 24V25C21.5523 25 22 24.5523 22 24H21ZM11 24H10C10 24.5523 10.4477 25 11 25V24ZM8 21H7C7 21.5523 7.44772 22 8 22V21ZM8 11V10C7.44772 10 7 10.4477 7 11H8ZM21 7H11V9H21V7ZM24 10C22.8954 10 22 9.10457 22 8H20C20 10.2091 21.7909 12 24 12V10ZM25 21V11H23V21H25ZM22 24C22 22.8954 22.8954 22 24 22V20C21.7909 20 20 21.7909 20 24H22ZM11 25H21V23H11V25ZM8 22C9.10457 22 10 22.8954 10 24H12C12 21.7909 10.2091 20 8 20V22ZM7 11V21H9V11H7ZM10 8C10 9.10457 9.10457 10 8 10V12C10.2091 12 12 10.2091 12 8H10Z" fill="#898885"/>
</svg>
