<svg width="32" height="32" viewBox="0 0 32 32" fill="none" xmlns="http://www.w3.org/2000/svg">
<path d="M16 26L23 26C25.2091 26 27 24.2091 27 22L27 10C27 7.79086 25.2091 6 23 6L16 6"  stroke-width="2" stroke-linecap="round"/>
<path d="M16 26L9 26C6.79086 26 5 24.2091 5 22L5 10C5 7.79086 6.79086 6 9 6L16 6"  stroke-width="2" stroke-linecap="round"/>
<path d="M19 16H20.625C21.3844 16 22 16.6156 22 17.375V17.375C22 18.1344 21.3844 18.75 20.625 18.75H19"  stroke-width="1.5" stroke-linecap="round"/>
<path d="M19 13.25H20.625C21.3844 13.25 22 13.8656 22 14.625V14.625C22 15.3844 21.3844 16 20.625 16H19"  stroke-width="1.5" stroke-linecap="round"/>
<circle cx="16.25" cy="14.5" r="0.75" fill="#898885"/>
<circle cx="16.25" cy="17.5" r="0.75" fill="#898885"/>
<path d="M13.5 16.25H10.5C9.94772 16.25 9.5 15.8023 9.5 15.25V13.25"  stroke-width="1.5" stroke-linecap="round"/>
<path d="M12.5 13.25V18.75"  stroke-width="1.5" stroke-linecap="round"/>
</svg>
