<svg width="32" height="32" viewBox="0 0 32 32" fill="none" xmlns="http://www.w3.org/2000/svg">
<path d="M27 16V11C27 8.79086 25.2091 7 23 7H9C6.79086 7 5 8.79086 5 11V16"  stroke-width="2" stroke-linecap="round"/>
<path d="M27 16V21C27 23.2091 25.2091 25 23 25H9C6.79086 25 5 23.2091 5 21V16"  stroke-width="2" stroke-linecap="round"/>
<path d="M10 16H11.625C12.3844 16 13 16.6156 13 17.375V17.375C13 18.1344 12.3844 18.75 11.625 18.75H10"  stroke-width="1.5" stroke-linecap="round"/>
<path d="M10 13.25H11.625C12.3844 13.25 13 13.8656 13 14.625V14.625C13 15.3844 12.3844 16 11.625 16H10"  stroke-width="1.5" stroke-linecap="round"/>
<circle cx="15.75" cy="14.5" r="0.75"/>
<circle cx="15.75" cy="17.5" r="0.75"/>
<path d="M19 13.25H20.6094C21.3774 13.25 22 13.8726 22 14.6406V14.6406C22 15.1673 21.7024 15.6488 21.2313 15.8843L20.1056 16.4472C19.428 16.786 19 17.4785 19 18.2361V18.5C19 18.7761 19.2239 19 19.5 19H22"  stroke-width="1.5" stroke-linecap="round"/>
</svg>
