<svg width="48" height="48" viewBox="0 0 48 48" fill="none" xmlns="http://www.w3.org/2000/svg">
<path d="M28 4H20C11.1634 4 4 11.1634 4 20V28C4 36.8366 11.1634 44 20 44H28C36.8366 44 44 36.8366 44 28V20C44 11.1634 36.8366 4 28 4Z" fill="#859AB4"/>
<path d="M35 24V19C35 16.7909 33.2091 15 31 15H17C14.7909 15 13 16.7909 13 19V24" stroke-width="2" stroke-linecap="round"/>
<path d="M35 24V29C35 31.2091 33.2091 33 31 33H17C14.7909 33 13 31.2091 13 29V24" stroke-width="2" stroke-linecap="round"/>
<path d="M18 24H19.625C20.3844 24 21 24.6156 21 25.375V25.375C21 26.1344 20.3844 26.75 19.625 26.75H18" stroke-width="1.5" stroke-linecap="round"/>
<path d="M18 21.25H19.625C20.3844 21.25 21 21.8656 21 22.625V22.625C21 23.3844 20.3844 24 19.625 24H18" stroke-width="1.5" stroke-linecap="round"/>
<circle cx="23.75" cy="22.5" r="0.75"/>
<circle cx="23.75" cy="25.5" r="0.75"/>
<path d="M27 21.25H28.6094C29.3774 21.25 30 21.8726 30 22.6406V22.6406C30 23.1673 29.7024 23.6488 29.2313 23.8843L28.1056 24.4472C27.428 24.786 27 25.4785 27 26.2361V26.5C27 26.7761 27.2239 27 27.5 27H30" stroke-width="1.5" stroke-linecap="round"/>
</svg>
