<svg width="48" height="48" viewBox="0 0 48 48" fill="none" xmlns="http://www.w3.org/2000/svg">
<path d="M12 20C12 17.7909 13.7909 16 16 16L32 16C34.2091 16 36 17.7909 36 20V28C36 30.2091 34.2091 32 32 32L16 32C13.7909 32 12 30.2091 12 28L12 20Z" stroke-width="2"/>
<path d="M15.5 21.75L17.25 21.25V26.75" stroke-width="1.5" stroke-linecap="round" stroke-linejoin="round"/>
<path d="M20.5 25.25C20.5 24.4216 21.1716 23.75 22 23.75V23.75C22.8284 23.75 23.5 24.4216 23.5 25.25V25.25C23.5 26.0784 22.8284 26.75 22 26.75V26.75C21.1716 26.75 20.5 26.0784 20.5 25.25V25.25Z" stroke-width="1.5"/>
<path d="M20.5 25.25V22.75C20.5 21.9216 21.1716 21.25 22 21.25H23" stroke-width="1.5" stroke-linecap="round"/>
<circle cx="26.25" cy="22.5" r="0.75" fill="#898885"/>
<circle cx="26.25" cy="25.5" r="0.75" fill="#898885"/>
<path d="M32 22.75C32 23.5784 31.3284 24.25 30.5 24.25V24.25C29.6716 24.25 29 23.5784 29 22.75V22.75C29 21.9216 29.6716 21.25 30.5 21.25V21.25C31.3284 21.25 32 21.9216 32 22.75V22.75Z" stroke-width="1.5"/>
<path d="M32 22.75V25.25C32 26.0784 31.3284 26.75 30.5 26.75H29.5" stroke-width="1.5" stroke-linecap="round"/>
</svg>
