<svg width="32" height="32" viewBox="0 0 32 32" fill="none" xmlns="http://www.w3.org/2000/svg">
<path d="M4 12C4 9.79086 5.79086 8 8 8L24 8C26.2091 8 28 9.79086 28 12L28 20C28 22.2091 26.2091 24 24 24L8 24C5.79086 24 4 22.2091 4 20L4 12Z"  stroke-width="2"/>
<path d="M7.5 13.75L9.25 13.25V18.75"  stroke-width="1.5" stroke-linecap="round" stroke-linejoin="round"/>
<path d="M12.5 17.25C12.5 16.4216 13.1716 15.75 14 15.75V15.75C14.8284 15.75 15.5 16.4216 15.5 17.25V17.25C15.5 18.0784 14.8284 18.75 14 18.75V18.75C13.1716 18.75 12.5 18.0784 12.5 17.25V17.25Z"  stroke-width="1.5"/>
<path d="M12.5 17.25V14.75C12.5 13.9216 13.1716 13.25 14 13.25H15"  stroke-width="1.5" stroke-linecap="round"/>
<circle cx="18.25" cy="14.5" r="0.75" fill="#898885"/>
<circle cx="18.25" cy="17.5" r="0.75" fill="#898885"/>
<path d="M24 14.75C24 15.5784 23.3284 16.25 22.5 16.25V16.25C21.6716 16.25 21 15.5784 21 14.75V14.75C21 13.9216 21.6716 13.25 22.5 13.25V13.25C23.3284 13.25 24 13.9216 24 14.75V14.75Z"  stroke-width="1.5"/>
<path d="M24 14.75V17.25C24 18.0784 23.3284 18.75 22.5 18.75H21.5"  stroke-width="1.5" stroke-linecap="round"/>
</svg>
