<svg width="48" height="48" viewBox="0 0 48 48" fill="none" xmlns="http://www.w3.org/2000/svg">
<path d="M30.3675 30.3675C28.7363 31.9988 26.4862 33 24 33C19.0275 33 15 28.9725 15 24L15 21" stroke="#898885" stroke-width="2" stroke-linecap="round"/>
<path d="M18 24C16.3431 24 15 22.6569 15 21" stroke="#898885" stroke-width="2" stroke-linecap="round"/>
<path d="M12 24C13.6569 24 15 22.6569 15 21" stroke="#898885" stroke-width="2" stroke-linecap="round"/>
<path d="M17.6325 17.6325C19.2637 16.0012 21.5138 15 24 15C28.9725 15 33 19.0275 33 24L33 27" stroke="#898885" stroke-width="2" stroke-linecap="round"/>
<path d="M30 24C31.6569 24 33 25.3431 33 27" stroke="#898885" stroke-width="2" stroke-linecap="round"/>
<path d="M36 24C34.3431 24 33 25.3431 33 27" stroke="#898885" stroke-width="2" stroke-linecap="round"/>
</svg>
