<svg width="22" height="22" viewBox="0 0 22 22" fill="none" xmlns="http://www.w3.org/2000/svg">
<path d="M19.5534 19.0697C17.3634 17.6897 15.2734 15.8897 14.8134 13.7497C14.6934 13.2097 14.6734 12.6597 14.6934 12.0197C14.6934 11.6997 14.7234 11.3497 14.7134 10.9497C14.7134 10.5497 14.6534 9.90974 14.4234 9.39974C14.2034 8.87974 13.8134 8.43974 13.3334 8.12974C13.1134 7.97974 12.8134 7.82974 12.5334 7.72974C12.2534 7.64974 11.9834 7.54974 11.6934 7.53974C11.1334 7.47974 10.5034 7.61974 10.0234 7.81974C9.56341 8.01974 9.19341 8.25974 8.85341 8.49974C8.04341 9.09974 7.41341 9.72974 6.81341 10.2997C6.21341 10.8697 5.63342 11.4197 5.12342 11.7597C4.52342 12.1397 4.53341 12.0197 4.36341 11.9697C4.32341 11.9497 4.21342 11.8297 4.08342 11.6597C3.99342 11.4897 3.89341 11.3297 3.85341 11.0997C3.63341 10.1997 4.01342 8.71974 4.62342 7.37974C5.23342 6.00974 6.05341 4.64974 6.95341 3.34974C6.99341 3.27974 7.04342 3.20974 7.08342 3.14974C7.58342 2.28974 7.35342 1.15974 6.51342 0.499742C5.67342 -0.160258 4.42341 0.0297425 3.75341 0.939743C3.70341 1.00974 3.65341 1.08974 3.60341 1.15974C2.67341 2.66974 1.83341 4.23974 1.17341 5.96974C0.843412 6.83974 0.563416 7.74974 0.403416 8.73974C0.253416 9.73974 0.183415 10.8397 0.543415 12.0297C0.703415 12.6197 1.02342 13.1997 1.41342 13.7097C1.81342 14.1897 2.31342 14.6697 3.04342 14.9997C3.74342 15.3197 4.53342 15.3697 5.26342 15.1797C6.05342 14.9697 6.52341 14.6397 6.96341 14.3297C7.80341 13.6897 8.40342 13.0297 8.98342 12.4097C9.55342 11.7997 10.0934 11.2097 10.6134 10.7797C10.8234 10.6097 11.0234 10.4797 11.1834 10.3897C11.3334 10.3197 11.3834 10.2997 11.5034 10.2997C11.5534 10.2997 11.6134 10.2997 11.6534 10.3197C11.6934 10.3197 11.7034 10.3197 11.7734 10.3597C11.8734 10.4097 11.9634 10.4797 12.0134 10.5797C12.0634 10.6897 12.0834 10.7397 12.1034 11.0197C12.1234 11.2997 12.1234 11.6297 12.1334 11.9997C12.1534 12.7197 12.2234 13.5497 12.4434 14.3297C12.8934 15.9297 13.8934 17.2597 14.9834 18.2597C16.0834 19.2797 17.2934 20.0697 18.5334 20.7697C19.3334 21.2397 20.1434 21.4297 20.6534 21.3597C20.8034 21.2697 20.9234 21.1397 21.0034 20.9697C21.0834 20.7997 21.1234 20.6297 21.1034 20.4497C20.8734 19.9997 20.2934 19.4797 19.5534 19.0397V19.0697Z" fill="#898985"/>
</svg>
